<svg width="800" height="200" viewBox="0 0 800 200" xmlns="http://www.w3.org/2000/svg">
  <rect width="800" height="200" fill="#ffffff" rx="8"/>

  <!-- clouds -->
  <g opacity="0.12">
    <ellipse cx="620" cy="35" rx="40" ry="8" fill="#535353"/>
    <ellipse cx="640" cy="32" rx="25" ry="6" fill="#535353"/>
    <ellipse cx="605" cy="33" rx="20" ry="5" fill="#535353"/>
  </g>

  <!-- ground line -->
  <line x1="0" y1="176" x2="800" y2="176" stroke="#535353" stroke-width="2"/>
  <line x1="0" y1="180" x2="900" y2="180" stroke="#535353" stroke-width="1" stroke-dasharray="10,6,4,6,6,6">
    <animateTransform attributeName="transform" type="translate" values="0,0;-32,0" dur="0.25s" repeatCount="indefinite"/>
  </line>

  <!-- === OBSTACLES (cacti) === -->
  <!-- Cactus 1: approaches every 2s, dino needs to jump -->
  <g>
    <animateTransform attributeName="transform" type="translate" values="850,0;-100,0" dur="2s" repeatCount="indefinite" begin="0s"/>
    <g fill="#535353">
      <rect x="0" y="148" width="6" height="28" rx="2"/>
      <rect x="-2" y="154" width="8" height="4" rx="1"/>
      <rect x="2" y="150" width="8" height="4" rx="1"/>
    </g>
  </g>
  <!-- Cactus 2: offset by 1s -->
  <g>
    <animateTransform attributeName="transform" type="translate" values="850,0;-100,0" dur="2s" repeatCount="indefinite" begin="1s"/>
    <g fill="#535353">
      <rect x="0" y="150" width="6" height="26" rx="2"/>
      <rect x="4" y="154" width="8" height="4" rx="1"/>
      <rect x="-4" y="158" width="6" height="4" rx="1"/>
    </g>
  </g>

  <!-- === DINO GROUP with synced jumps === -->
  <!-- Jump begins at 1.55s, 3.55s, 5.55s... (=0.55 + 2n, but offset to match cactus cycle) -->
  <!-- Cactus at x=100 = (850-100)/950*2 = 1.58s. Jump begins at 1.4s, peaks at 1.55s -->
  <g>
    <animateTransform attributeName="transform" type="translate"
      values="0,0;0,0;0,0;0,-58;0,-50;0,-28;0,-8;0,0;0,0;0,0;0,0;0,0;0,0;0,0;0,0;0,0;0,0;0,0;0,0;0,0"
      dur="2s" repeatCount="indefinite"
      keyTimes="0;0.65;0.72;0.75;0.78;0.81;0.84;0.87;0.9;0.92;0.94;0.95;0.96;0.97;0.98;0.985;0.99;0.995;0.998;1"/>

    <!-- body group with running bob -->
    <g>
      <animateTransform attributeName="transform" type="translate" values="0,0;0,-2;0,0" dur="0.12s" repeatCount="indefinite"/>

      <!-- === CHROME DINO BODY (smooth vector) === -->
      <!-- Scale: about 70px wide, 65px tall, at x=75, ground at y=176 -->
      <!-- Ground contact: feet at y=172 -->

      <!-- dino body silhouette -->
      <g transform="translate(75, 108)">
        <!-- Legs -->
        <g>
          <!-- back leg (animated - rotates) -->
          <g>
            <animateTransform attributeName="transform" type="rotate" values="-12,14,56;14,14,56;-12,14,56" dur="0.12s" repeatCount="indefinite"/>
            <rect x="11" y="44" width="5" height="20" rx="2" fill="#535353"/>
            <rect x="7" y="62" width="12" height="4" rx="2" fill="#535353"/>
          </g>
          <!-- front leg (animated - opposite phase) -->
          <g>
            <animateTransform attributeName="transform" type="rotate" values="14,36,44;-12,36,44;14,36,44" dur="0.12s" repeatCount="indefinite"/>
            <rect x="34" y="44" width="5" height="20" rx="2" fill="#535353"/>
            <rect x="30" y="62" width="12" height="4" rx="2" fill="#535353"/>
          </g>
        </g>

        <!-- tail -->
        <path d="M 4,32 L 0,28 L 10,38 Z" fill="#535353"/>

        <!-- body + head (continuous shape) -->
        <path d="
          M 40,2
          Q 44,2 46,6
          Q 48,10 48,16
          Q 48,22 46,26
          L 44,30
          Q 42,34 38,36
          Q 42,36 44,38
          Q 46,40 46,44
          Q 46,46 44,48
          Q 40,50 36,48
          Q 32,46 30,44
          L 24,44
          Q 20,46 16,48
          Q 12,50 8,48
          Q 4,46 4,42
          Q 4,38 6,36
          Q 8,34 10,36
          Q 6,34 4,30
          Q 2,26 4,22
          Q 6,18 10,16
          Q 14,12 18,10
          Q 22,8 26,6
          Q 30,4 34,3
          Q 36,2 40,2 Z
        " fill="#535353"/>

        <!-- crest on head -->
        <path d="M 38,4 L 42,0 L 46,6 Z" fill="#535353"/>

        <!-- eye -->
        <circle cx="44" cy="12" r="3.5" fill="#ffffff"/>
        <circle cx="45" cy="11.5" r="1.8" fill="#535353"/>

        <!-- mouth line -->
        <line x1="46" y1="26" x2="40" y2="28" stroke="#ffffff" stroke-width="0.5" opacity="0.5"/>

        <!-- tiny arm -->
        <path d="M 34,38 L 38,42 L 36,44" stroke="#535353" stroke-width="2.5" fill="none" stroke-linecap="round"/>
      </g>
    </g>
  </g>

  <!-- score -->
  <text x="700" y="32" font-family="&quot;Courier New&quot;, Courier, monospace" font-size="16" fill="#535353" text-anchor="end" font-weight="bold">HI 00000 00000</text>
</svg>
