<svg width="800" height="200" viewBox="0 0 800 200" xmlns="http://www.w3.org/2000/svg">
  <defs>
    <style>
      @keyframes run-leg-back { 0%,100% { transform: rotate(-15deg); } 50% { transform: rotate(20deg); } }
      @keyframes run-leg-front { 0%,100% { transform: rotate(20deg); } 50% { transform: rotate(-15deg); } }
      @keyframes scroll-ground { 0% { transform: translateX(0); } 100% { transform: translateX(-40px); } }
      @keyframes scroll-cactus { 0% { transform: translateX(900px); } 100% { transform: translateX(-100px); } }
      @keyframes bob-body { 0%,100% { transform: translateY(0); } 50% { transform: translateY(-2px); } }
      .ground { animation: scroll-ground 0.4s linear infinite; }
      .cactus { animation: scroll-cactus 3s linear infinite; }
      .cactus2 { animation: scroll-cactus 3s linear infinite; animation-delay: 1.5s; }
      .leg-back { animation: run-leg-back 0.3s ease-in-out infinite; transform-origin: 95px 155px; }
      .leg-front { animation: run-leg-front 0.3s ease-in-out infinite; transform-origin: 115px 155px; }
      .body-group { animation: bob-body 0.3s ease-in-out infinite; }
    </style>
  </defs>

  <!-- dark background -->
  <rect width="800" height="200" fill="#0d1117" rx="8"/>

  <!-- clouds -->
  <g opacity="0.08">
    <ellipse cx="600" cy="30" rx="40" ry="12" fill="#c9d1d9"/>
    <ellipse cx="620" cy="26" rx="30" ry="10" fill="#c9d1d9"/>
    <ellipse cx="580" cy="28" rx="25" ry="8" fill="#c9d1d9"/>
  </g>

  <!-- ground -->
  <line x1="0" y1="170" x2="800" y2="170" stroke="#8b949e" stroke-width="2"/>
  <g class="ground">
    <line x1="0" y1="175" x2="840" y2="175" stroke="#8b949e" stroke-width="1" stroke-dasharray="8,8,2,8,4,8"/>
  </g>

  <!-- cacti -->
  <g class="cactus">
    <rect x="0" y="140" width="6" height="30" rx="2" fill="#8b949e"/>
    <rect x="-2" y="148" width="8" height="4" rx="1" fill="#8b949e"/>
    <rect x="2" y="145" width="8" height="4" rx="1" fill="#8b949e"/>
  </g>
  <g class="cactus2">
    <rect x="0" y="145" width="6" height="25" rx="2" fill="#8b949e"/>
    <rect x="-4" y="155" width="8" height="4" rx="1" fill="#8b949e"/>
    <rect x="-2" y="152" width="4" height="4" rx="1" fill="#8b949e"/>
  </g>

  <!-- T-Rex Dino -->
  <g class="body-group">
    <!-- tail -->
    <path d="M 78,148 L 50,140 L 55,150 L 78,155 Z" fill="#8b949e"/>
    <!-- body -->
    <ellipse cx="100" cy="145" rx="22" ry="14" fill="#8b949e"/>
    <!-- head -->
    <ellipse cx="130" cy="130" rx="16" ry="12" fill="#8b949e"/>
    <!-- snout -->
    <path d="M 140,122 Q 155,125 150,135 L 140,135 Z" fill="#8b949e"/>
    <!-- eye -->
    <circle cx="135" cy="127" r="3" fill="#0d1117"/>
    <circle cx="136" cy="126" r="1.5" fill="#8b949e"/>
    <!-- crest -->
    <path d="M 118,120 L 122,108 L 128,118 Z" fill="#8b949e"/>
    <!-- arm -->
    <rect x="115" y="140" width="4" height="10" rx="2" fill="#8b949e" transform="rotate(-20,117,140)"/>

    <!-- back leg -->
    <g class="leg-back">
      <rect x="90" y="155" width="6" height="18" rx="2" fill="#8b949e"/>
      <rect x="86" y="171" width="12" height="4" rx="2" fill="#8b949e"/>
    </g>
    <!-- front leg -->
    <g class="leg-front">
      <rect x="110" y="155" width="6" height="18" rx="2" fill="#8b949e"/>
      <rect x="106" y="171" width="12" height="4" rx="2" fill="#8b949e"/>
    </g>
  </g>

  <!-- score text -->
  <text x="700" y="30" font-family="Courier New, monospace" font-size="14" fill="#8b949e" text-anchor="end">HI 00000 0000</text>
</svg>
