<svg width="800" height="200" viewBox="0 0 800 200" xmlns="http://www.w3.org/2000/svg">
  <rect width="800" height="200" fill="#ffffff" rx="8"/>

  <!-- clouds -->
  <g opacity="0.15" shape-rendering="crispEdges">
    <rect x="580" y="20" width="12" height="12" fill="#535353"/>
    <rect x="592" y="16" width="28" height="8" fill="#535353"/>
    <rect x="600" y="8" width="24" height="8" fill="#535353"/>
    <rect x="610" y="24" width="8" height="8" fill="#535353"/>
    <rect x="624" y="20" width="16" height="8" fill="#535353"/>
    <rect x="620" y="12" width="8" height="8" fill="#535353"/>
  </g>

  <!-- ground -->
  <line x1="0" y1="180" x2="800" y2="180" stroke="#535353" stroke-width="2"/>
  <line x1="0" y1="184" x2="840" y2="184" stroke="#535353" stroke-width="1" stroke-dasharray="8,6,4,6,4,6">
    <animateTransform attributeName="transform" type="translate" values="0,0;-28,0" dur="0.3s" repeatCount="indefinite"/>
  </line>

  <!-- Cacti -->
  <g><animateTransform attributeName="transform" type="translate" values="850,0;-120,0" dur="3s" repeatCount="indefinite"/>
    <g shape-rendering="crispEdges">
      <rect x="0" y="152" width="8" height="28" fill="#535353"/>
      <rect x="8" y="156" width="8" height="4" fill="#535353"/>
      <rect x="-8" y="164" width="8" height="4" fill="#535353"/>
      <rect x="-4" y="160" width="8" height="4" fill="#535353"/>
      <rect x="12" y="148" width="4" height="8" fill="#535353"/>
      <rect x="0" y="148" width="4" height="4" fill="#535353"/>
    </g>
  </g>
  <g><animateTransform attributeName="transform" type="translate" values="850,0;-120,0" dur="3s" repeatCount="indefinite" begin="1.5s"/>
    <g shape-rendering="crispEdges">
      <rect x="0" y="156" width="8" height="24" fill="#535353"/>
      <rect x="-8" y="164" width="8" height="4" fill="#535353"/>
      <rect x="-4" y="160" width="4" height="4" fill="#535353"/>
      <rect x="4" y="152" width="8" height="4" fill="#535353"/>
    </g>
  </g>

  <!-- DINO with jump -->
  <g>
    <animateTransform attributeName="transform" type="translate"
      values="0,0;0,0;0,0;0,-55;0,-45;0,-25;0,-5;0,0;0,0;0,0;0,0;0,0;0,0;0,0;0,0;0,0;0,0;0,0;0,0;0,0"
      dur="6s" repeatCount="indefinite"
      keyTimes="0;0.35;0.45;0.48;0.51;0.54;0.57;0.6;0.63;0.66;0.69;0.72;0.75;0.78;0.81;0.84;0.88;0.92;0.96;1"/>

    <g>
      <animateTransform attributeName="transform" type="translate" values="0,0;0,-2;0,0" dur="0.15s" repeatCount="indefinite"/>

      <!-- === CHROME DINO PIXEL ART (4px per pixel) === -->
      <g shape-rendering="crispEdges" fill="#535353">

        <!-- Row  0: head top -->
        <rect x="108" y="92" width="4" height="4"/>
        <rect x="112" y="92" width="4" height="4"/>
        <rect x="116" y="92" width="4" height="4"/>
        <rect x="120" y="92" width="4" height="4"/>
        <rect x="124" y="92" width="4" height="4"/>

        <!-- Row  1 -->
        <rect x="100" y="96" width="4" height="4"/>
        <rect x="104" y="96" width="4" height="4"/>
        <rect x="108" y="96" width="4" height="4"/>
        <rect x="112" y="96" width="4" height="4"/>
        <rect x="116" y="96" width="4" height="4"/>
        <rect x="120" y="96" width="4" height="4"/>
        <rect x="124" y="96" width="4" height="4"/>
        <rect x="128" y="96" width="4" height="4"/>
        <rect x="132" y="96" width="4" height="4"/>

        <!-- Row  2 -->
        <rect x="96" y="100" width="4" height="4"/>
        <rect x="100" y="100" width="4" height="4"/>
        <rect x="104" y="100" width="4" height="4"/>
        <rect x="108" y="100" width="4" height="4"/>
        <rect x="112" y="100" width="4" height="4"/>
        <rect x="116" y="100" width="4" height="4"/>
        <rect x="120" y="100" width="4" height="4"/>
        <rect x="124" y="100" width="4" height="4"/>
        <rect x="128" y="100" width="4" height="4"/>
        <rect x="132" y="100" width="4" height="4"/>
        <rect x="136" y="100" width="4" height="4"/>
        <rect x="140" y="100" width="4" height="4"/>

        <!-- Row  3: body with gap (arms area) -->
        <rect x="96" y="104" width="4" height="4"/>
        <rect x="100" y="104" width="4" height="4"/>
        <rect x="104" y="104" width="4" height="4"/>
        <rect x="108" y="104" width="4" height="4"/>
        <!-- gap -->
        <rect x="128" y="104" width="4" height="4"/>
        <rect x="132" y="104" width="4" height="4"/>
        <rect x="136" y="104" width="4" height="4"/>
        <rect x="140" y="104" width="4" height="4"/>

        <!-- Row  4: solid body -->
        <rect x="96" y="108" width="4" height="4"/>
        <rect x="100" y="108" width="4" height="4"/>
        <rect x="104" y="108" width="4" height="4"/>
        <rect x="108" y="108" width="4" height="4"/>
        <rect x="112" y="108" width="4" height="4"/>
        <rect x="116" y="108" width="4" height="4"/>
        <rect x="120" y="108" width="4" height="4"/>
        <rect x="124" y="108" width="4" height="4"/>
        <rect x="128" y="108" width="4" height="4"/>
        <rect x="132" y="108" width="4" height="4"/>
        <rect x="136" y="108" width="4" height="4"/>
        <rect x="140" y="108" width="4" height="4"/>

        <!-- Row  5 -->
        <rect x="96" y="112" width="4" height="4"/>
        <rect x="100" y="112" width="4" height="4"/>
        <rect x="104" y="112" width="4" height="4"/>
        <rect x="108" y="112" width="4" height="4"/>
        <rect x="112" y="112" width="4" height="4"/>
        <rect x="116" y="112" width="4" height="4"/>
        <rect x="120" y="112" width="4" height="4"/>
        <rect x="124" y="112" width="4" height="4"/>
        <rect x="128" y="112" width="4" height="4"/>
        <rect x="132" y="112" width="4" height="4"/>
        <rect x="136" y="112" width="4" height="4"/>

        <!-- Row  6 -->
        <rect x="96" y="116" width="4" height="4"/>
        <rect x="100" y="116" width="4" height="4"/>
        <rect x="104" y="116" width="4" height="4"/>
        <rect x="108" y="116" width="4" height="4"/>
        <rect x="112" y="116" width="4" height="4"/>
        <rect x="116" y="116" width="4" height="4"/>
        <rect x="120" y="116" width="4" height="4"/>
        <rect x="124" y="116" width="4" height="4"/>
        <rect x="128" y="116" width="4" height="4"/>
        <rect x="132" y="116" width="4" height="4"/>

        <!-- Row  7 -->
        <rect x="96" y="120" width="4" height="4"/>
        <rect x="100" y="120" width="4" height="4"/>
        <rect x="104" y="120" width="4" height="4"/>
        <rect x="108" y="120" width="4" height="4"/>
        <rect x="112" y="120" width="4" height="4"/>
        <rect x="116" y="120" width="4" height="4"/>
        <rect x="120" y="120" width="4" height="4"/>
        <rect x="124" y="120" width="4" height="4"/>
        <rect x="128" y="120" width="4" height="4"/>
        <rect x="132" y="120" width="4" height="4"/>

        <!-- Row  8: body with leg gap -->
        <rect x="96" y="124" width="4" height="4"/>
        <rect x="100" y="124" width="4" height="4"/>
        <rect x="104" y="124" width="4" height="4"/>
        <rect x="108" y="124" width="4" height="4"/>
        <rect x="112" y="124" width="4" height="4"/>
        <!-- gap -->
        <rect x="124" y="124" width="4" height="4"/>
        <rect x="128" y="124" width="4" height="4"/>
        <rect x="132" y="124" width="4" height="4"/>

        <!-- Row  9 -->
        <rect x="92" y="128" width="4" height="4"/>
        <rect x="96" y="128" width="4" height="4"/>
        <rect x="100" y="128" width="4" height="4"/>
        <rect x="104" y="128" width="4" height="4"/>
        <!-- gap -->
        <rect x="128" y="128" width="4" height="4"/>
        <rect x="132" y="128" width="4" height="4"/>
        <rect x="136" y="128" width="4" height="4"/>

        <!-- Row 10: upper legs -->
        <rect x="92" y="132" width="4" height="4"/>
        <rect x="96" y="132" width="4" height="4"/>
        <rect x="100" y="132" width="4" height="4"/>
        <!-- gap -->
        <rect x="128" y="132" width="4" height="4"/>
        <rect x="132" y="132" width="4" height="4"/>
        <rect x="136" y="132" width="4" height="4"/>

        <!-- Row 11: mid legs -->
        <rect x="92" y="136" width="4" height="4"/>
        <rect x="96" y="136" width="4" height="4"/>
        <!-- gap -->
        <rect x="128" y="136" width="4" height="4"/>
        <rect x="132" y="136" width="4" height="4"/>
        <rect x="136" y="136" width="4" height="4"/>

        <!-- Row 12: lower legs -->
        <rect x="92" y="140" width="4" height="4"/>
        <rect x="96" y="140" width="4" height="4"/>
        <!-- gap -->
        <rect x="132" y="140" width="4" height="4"/>
        <rect x="136" y="140" width="4" height="4"/>

        <!-- Row 13: feet -->
        <rect x="88" y="144" width="4" height="4"/>
        <rect x="92" y="144" width="4" height="4"/>
        <!-- gap -->
        <rect x="136" y="144" width="4" height="4"/>
        <rect x="140" y="144" width="4" height="4"/>

        <!-- Row 14: feet bottom -->
        <rect x="88" y="148" width="4" height="4"/>
        <rect x="92" y="148" width="4" height="4"/>
        <!-- gap -->
        <rect x="136" y="148" width="4" height="4"/>
        <rect x="140" y="148" width="4" height="4"/>
      </g>

      <!-- Eye -->
      <g shape-rendering="crispEdges">
        <rect x="112" y="96" width="8" height="4" fill="#ffffff"/>
        <rect x="116" y="96" width="4" height="4" fill="#535353"/>
      </g>

      <!-- Crest (red comb on top row) -->
      <g shape-rendering="crispEdges">
        <rect x="108" y="88" width="4" height="4" fill="#535353"/>
        <rect x="112" y="84" width="12" height="8" fill="#535353"/>
      </g>

      <!-- Arm -->
      <g shape-rendering="crispEdges">
        <rect x="120" y="114" width="4" height="8" fill="#535353"/>
        <rect x="124" y="118" width="4" height="4" fill="#535353"/>
      </g>

      <!-- Back leg -->
      <g>
        <animateTransform attributeName="transform" type="rotate" values="-15,96,144;15,96,144;-15,96,144" dur="0.15s" repeatCount="indefinite"/>
        <g shape-rendering="crispEdges" fill="#535353">
          <rect x="92" y="144" width="8" height="16"/>
          <rect x="88" y="160" width="16" height="4"/>
        </g>
      </g>

      <!-- Front leg -->
      <g>
        <animateTransform attributeName="transform" type="rotate" values="15,134,144;-15,134,144;15,134,144" dur="0.15s" repeatCount="indefinite"/>
        <g shape-rendering="crispEdges" fill="#535353">
          <rect x="130" y="144" width="8" height="16"/>
          <rect x="126" y="160" width="16" height="4"/>
        </g>
      </g>
    </g>
  </g>

  <!-- score -->
  <text x="700" y="30" font-family="monospace" font-size="16" fill="#535353" text-anchor="end">HI 00000 00000</text>
</svg>
